<svg xmlns="http://www.w3.org/2000/svg" width="1200" height="520" viewBox="0 0 1200 520">
<defs><linearGradient id="bg" x1="0" x2="1"><stop stop-color="#0b2742"/><stop offset="1" stop-color="#102a46"/></linearGradient><linearGradient id="a" x1="0" x2="1"><stop stop-color="#6fc7ff"/><stop offset="1" stop-color="#86e3b2"/></linearGradient></defs>
<rect width="1200" height="520" rx="28" fill="url(#bg)"/>
<text x="60" y="70" fill="#eef5fb" font-family="Arial" font-size="34" font-weight="700">Як працює Deep Learning</text>
<text x="60" y="108" fill="#b7c7d8" font-family="Arial" font-size="20">Дані проходять через нейронну мережу, модель навчається і формує результат</text>
<g font-family="Arial" text-anchor="middle">
<rect x="60" y="170" width="230" height="260" rx="22" fill="#123553" stroke="#284a68"/>
<circle cx="175" cy="235" r="46" fill="#0b2239" stroke="#6fc7ff" stroke-width="4"/>
<rect x="137" y="213" width="76" height="50" rx="8" fill="#6fc7ff" opacity=".25"/>
<path d="M145 251l22-22 18 18 14-11 16 15" fill="none" stroke="#eef5fb" stroke-width="6"/>
<text x="175" y="326" fill="#6fc7ff" font-size="28" font-weight="700">ДАНІ</text>
<text x="175" y="360" fill="#b7c7d8" font-size="17">зображення</text><text x="175" y="385" fill="#b7c7d8" font-size="17">текст • звук • сигнали</text>
<text x="325" y="305" fill="#6fc7ff" font-size="42">→</text>
<rect x="365" y="170" width="230" height="260" rx="22" fill="#123553" stroke="#284a68"/>
<g stroke="#6fc7ff" stroke-width="2" opacity=".65"><line x1="420" y1="225" x2="485" y2="205"/><line x1="420" y1="225" x2="485" y2="260"/><line x1="420" y1="275" x2="485" y2="205"/><line x1="420" y1="275" x2="485" y2="260"/><line x1="485" y1="205" x2="540" y2="235"/><line x1="485" y1="260" x2="540" y2="235"/></g>
<g fill="#6fc7ff"><circle cx="420" cy="225" r="11"/><circle cx="420" cy="275" r="11"/><circle cx="485" cy="205" r="11"/><circle cx="485" cy="260" r="11"/><circle cx="540" cy="235" r="13"/></g>
<text x="480" y="326" fill="#6fc7ff" font-size="28" font-weight="700">МЕРЕЖА</text><text x="480" y="360" fill="#b7c7d8" font-size="17">шари нейронів</text><text x="480" y="385" fill="#b7c7d8" font-size="17">і зв’язки між ними</text>
<text x="630" y="305" fill="#6fc7ff" font-size="42">→</text>
<rect x="670" y="170" width="230" height="260" rx="22" fill="#123553" stroke="#284a68"/>
<circle cx="785" cy="238" r="46" fill="none" stroke="url(#a)" stroke-width="10" stroke-dasharray="150 80"/><path d="M805 190l20 10-10 19" fill="none" stroke="#86e3b2" stroke-width="6"/>
<text x="785" y="326" fill="#6fc7ff" font-size="28" font-weight="700">НАВЧАННЯ</text><text x="785" y="360" fill="#b7c7d8" font-size="17">помилка</text><text x="785" y="385" fill="#b7c7d8" font-size="17">→ коригування параметрів</text>
<text x="935" y="305" fill="#6fc7ff" font-size="42">→</text>
<rect x="975" y="170" width="165" height="260" rx="22" fill="#123553" stroke="#284a68"/>
<circle cx="1058" cy="235" r="44" fill="#86e3b2" opacity=".18" stroke="#86e3b2" stroke-width="4"/><path d="M1038 236l14 14 28-34" fill="none" stroke="#86e3b2" stroke-width="8"/>
<text x="1058" y="326" fill="#86e3b2" font-size="25" font-weight="700">РЕЗУЛЬТАТ</text><text x="1058" y="360" fill="#b7c7d8" font-size="16">клас • прогноз</text><text x="1058" y="385" fill="#b7c7d8" font-size="16">текст • сигнал</text>
</g></svg>