<svg xmlns="http://www.w3.org/2000/svg" viewBox="0 0 1200 360">
<rect width="1200" height="360" rx="28" fill="#0a2036"/>
<g font-family="Arial, sans-serif">
  <text x="60" y="55" fill="#eef5fb" font-size="30" font-weight="700">From simple features to complex representations</text>
  <text x="60" y="88" fill="#afc2d6" font-size="18">Deeper layers combine simpler patterns into richer representations.</text>
</g>
<g transform="translate(60 130)" font-family="Arial, sans-serif" text-anchor="middle">
  <rect x="0" y="0" width="220" height="150" rx="18" fill="#102d48" stroke="#2e5879"/>
  <text x="110" y="42" fill="#6fc7ff" font-size="20" font-weight="700">Pixels</text>
  <g fill="#7899b4"><rect x="72" y="72" width="20" height="20"/><rect x="96" y="72" width="20" height="20"/><rect x="120" y="72" width="20" height="20"/><rect x="72" y="96" width="20" height="20"/><rect x="96" y="96" width="20" height="20"/><rect x="120" y="96" width="20" height="20"/></g>
  <text x="265" y="85" fill="#6fc7ff" font-size="38">→</text>

  <rect x="310" y="0" width="220" height="150" rx="18" fill="#102d48" stroke="#2e5879"/>
  <text x="420" y="42" fill="#6fc7ff" font-size="20" font-weight="700">Edges</text>
  <path d="M365 110 L420 65 L475 110" stroke="#a892ff" stroke-width="8" fill="none"/>
  <text x="575" y="85" fill="#6fc7ff" font-size="38">→</text>

  <rect x="620" y="0" width="220" height="150" rx="18" fill="#102d48" stroke="#2e5879"/>
  <text x="730" y="42" fill="#6fc7ff" font-size="20" font-weight="700">Shapes</text>
  <circle cx="700" cy="95" r="25" fill="none" stroke="#86e3b2" stroke-width="7"/><rect x="735" y="70" width="50" height="50" rx="8" fill="none" stroke="#86e3b2" stroke-width="7"/>
  <text x="885" y="85" fill="#6fc7ff" font-size="38">→</text>

  <rect x="930" y="0" width="210" height="150" rx="18" fill="#102d48" stroke="#2e5879"/>
  <text x="1035" y="42" fill="#6fc7ff" font-size="20" font-weight="700">Object</text>
  <path d="M985 105 h100 l-10-35 h-80 z" fill="#ffd27a"/><circle cx="1005" cy="112" r="10" fill="#0a2036"/><circle cx="1065" cy="112" r="10" fill="#0a2036"/>
</g>
</svg>